PathFileType	4	(X/Y/Z)	RBDS002static.trc
DataRate	CameraRate	NumFrames	NumMarkers	Units	OrigDataRate	OrigDataStartFrame	OrigNumFrames
150.000000	150.000000	4	48	mm	150.000000	93	150
Frame#	Time	L.Ankle			L.Ankle.Medial			L.ASIS			L.GTR			L.Heel.Bottom			L.Heel.Lateral			L.Heel.Top			L.HF			L.Iliac.Crest			L.Knee			L.Knee.Medial			L.MT1			L.MT2			L.MT5			L.PSIS			L.Shank.Bottom.Lateral			L.Shank.Bottom.Medial			L.Shank.Top.Lateral			L.Shank.Top.Medial			L.Thigh.Bottom.Lateral			L.Thigh.Bottom.Medial			L.Thigh.Top.Lateral			L.Thigh.Top.Medial			L.TT			R.Ankle			R.Ankle.Medial			R.ASIS			R.GTR			R.Heel.Bottom			R.Heel.Lateral			R.Heel.Top			R.HF			R.Iliac.Crest			R.Knee			R.Knee.Medial			R.MT1			R.MT2			R.MT5			R.PSIS			R.Shank.Bottom.Lateral			R.Shank.Bottom.Medial			R.Shank.Top.Lateral			R.Shank.Top.Medial			R.Thigh.Bottom.Lateral			R.Thigh.Bottom.Medial			R.Thigh.Top.Lateral			R.Thigh.Top.Medial			R.TT			
		X1	Y1	Z1	X2	Y2	Z2	X3	Y3	Z3	X4	Y4	Z4	X5	Y5	Z5	X6	Y6	Z6	X7	Y7	Z7	X8	Y8	Z8	X9	Y9	Z9	X10	Y10	Z10	X11	Y11	Z11	X12	Y12	Z12	X13	Y13	Z13	X14	Y14	Z14	X15	Y15	Z15	X16	Y16	Z16	X17	Y17	Z17	X18	Y18	Z18	X19	Y19	Z19	X20	Y20	Z20	X21	Y21	Z21	X22	Y22	Z22	X23	Y23	Z23	X24	Y24	Z24	X25	Y25	Z25	X26	Y26	Z26	X27	Y27	Z27	X28	Y28	Z28	X29	Y29	Z29	X30	Y30	Z30	X31	Y31	Z31	X32	Y32	Z32	X33	Y33	Z33	X34	Y34	Z34	X35	Y35	Z35	X36	Y36	Z36	X37	Y37	Z37	X38	Y38	Z38	X39	Y39	Z39	X40	Y40	Z40	X41	Y41	Z41	X42	Y42	Z42	X43	Y43	Z43	X44	Y44	Z44	X45	Y45	Z45	X46	Y46	Z46	X47	Y47	Z47	X48	Y48	Z48	

94	0.62	713.17041015625	106.3148803710938	1030.572509765625	735.3821411132813	119.1128387451172	1112.102294921875	853.5245361328125	1050.6044921875	1108.86767578125	775.29345703125	953.86328125	1032.100219726563	637.3717041015625	44.15155792236328	1072.238037109375	670.4630126953125	55.17470169067383	1027.274291992188	648.8466796875	94.15554809570313	1071.406127929688	723.1347045898438	484.017333984375	1008.123474121094	767.1997680664063	1129.539916992188	1052.01953125	735.9737548828125	552.0321655273438	1011.942321777344	714.9415893554688	530.0064086914063	1140.6865234375	864.9907836914063	63.63368606567383	1121.716918945313	871.54248046875	71.23532104492188	1073.803100585938	838.761962890625	47.47900390625	1005.176879882813	665.8019409179688	1096.356811523438	1167.372924804688	701.7183227539063	176.4271240234375	1020.315368652344	662.9968872070313	175.5798034667969	1054.342041015625	691.3556518554688	255.2161712646484	1004.599060058594	652.9345092773438	259.2249755859375	1041.279663085938	725.6408081054688	649.0094604492188	1010.906555175781	673.2276000976563	641.879150390625	1061.852172851563	714.6705932617188	758.8471069335938	1020.035949707031	668.1105346679688	752.146240234375	1070.281005859375	782.236328125	462.8292846679688	1062.736206054688	709.95703125	104.9464797973633	1411.256713867188	732.9902954101563	121.2598419189453	1327.320190429688	849.4524536132813	1049.894897460938	1327.030883789063	767.4503173828125	964.6771850585938	1399.137817382813	632.5509033203125	44.02060699462891	1374.588623046875	658.0455932617188	59.15624237060547	1412.324340820313	644.71875	94.40736389160156	1373.230834960938	733.9877319335938	486.5882263183594	1422.889282226563	764.5034790039063	1132.8525390625	1374.474609375	734.4732055664063	558.7725219726563	1415.78369140625	722.0784301757813	535.8895874023438	1285.008178710938	862.487060546875	66.24826812744141	1323.609741210938	865.85595703125	74.76403045654297	1366.8857421875	838.3800048828125	56.98504638671875	1435.8076171875	664.4432373046875	1098.06201171875	1256.46826171875	697.3659057617188	189.1288909912109	1423.608764648438	657.489990234375	191.2754364013672	1386.39208984375	688.6318359375	268.9158325195313	1435.654541015625	651.115234375	270.3696899414063	1396.284545898438	718.6275634765625	660.0987548828125	1418.12939453125	665.7431030273438	657.6452026367188	1366.068237304688	710.3785400390625	770.6597290039063	1417.46337890625	661.1889038085938	767.8329467773438	1367.302368164063	789.1365356445313	475.6308288574219	1367.54296875	
95	0.6266666666666667	713.1857299804688	106.3213195800781	1030.578979492188	735.3903198242188	119.1070556640625	1112.091064453125	853.5353393554688	1050.60400390625	1108.8759765625	775.288330078125	953.8739013671875	1032.101928710938	637.3712158203125	44.15872573852539	1072.229614257813	670.4722290039063	55.17902374267578	1027.263305664063	648.8470458984375	94.15985107421875	1071.41796875	723.1399536132813	483.9844055175781	1008.1298828125	767.2198486328125	1129.537475585938	1052.029296875	735.9711303710938	552.0415649414063	1011.94580078125	714.94921875	530.01220703125	1140.694702148438	864.9934692382813	63.62801361083984	1121.709106445313	871.5377197265625	71.24044799804688	1073.802368164063	838.7597045898438	47.47179794311523	1005.172546386719	665.8138427734375	1096.357055664063	1167.382202148438	701.720458984375	176.4183807373047	1020.324279785156	663.0099487304688	175.5669708251953	1054.349609375	691.3532104492188	255.2214965820313	1004.601196289063	652.9293823242188	259.22998046875	1041.286743164063	725.638671875	649.0033569335938	1010.9072265625	673.22705078125	641.878173828125	1061.862670898438	714.6799926757813	758.8587036132813	1020.054382324219	668.1146240234375	752.1514282226563	1070.294311523438	782.2498168945313	462.8305053710938	1062.730834960938	709.9586791992188	104.9463806152344	1411.254516601563	733.0087890625	121.2585678100586	1327.294677734375	849.4683227539063	1049.887084960938	1327.032592773438	767.4706420898438	964.68017578125	1399.150634765625	632.552001953125	44.02224349975586	1374.596313476563	658.04931640625	59.15441513061523	1412.3330078125	644.722412109375	94.40646362304688	1373.240234375	733.991455078125	486.599609375	1422.897094726563	764.522216796875	1132.860229492188	1374.486083984375	734.46337890625	558.7703857421875	1415.8017578125	722.0794067382813	535.8875122070313	1285.014282226563	862.488037109375	66.24266815185547	1323.603149414063	865.8723754882813	74.75424957275391	1366.87646484375	838.3836059570313	56.98032379150391	1435.802124023438	664.4609985351563	1098.064086914063	1256.465942382813	697.3815307617188	189.129150390625	1423.60498046875	657.4871215820313	191.2705688476563	1386.391845703125	688.6347045898438	268.9135437011719	1435.67333984375	651.1199340820313	270.3759765625	1396.303833007813	718.633544921875	660.1001586914063	1418.141845703125	665.7528076171875	657.6505737304688	1366.076416015625	710.3866577148438	770.667724609375	1417.473876953125	661.197509765625	767.8397827148438	1367.321899414063	789.1353149414063	475.6350402832031	1367.551025390625	
96	0.6333333333333334	713.1859741210938	106.3188018798828	1030.576171875	735.3824462890625	119.1120681762695	1112.098999023438	853.5457153320313	1050.6083984375	1108.870483398438	775.2999267578125	953.8570556640625	1032.117919921875	637.3736572265625	44.14760589599609	1072.24365234375	670.4694213867188	55.16996383666992	1027.268432617188	648.8430786132813	94.16358947753906	1071.403686523438	723.1395263671875	484.0001220703125	1008.1513671875	767.237548828125	1129.531005859375	1052.031616210938	735.9624633789063	552.0414428710938	1011.947692871094	714.9568481445313	530.0017700195313	1140.688232421875	864.9907836914063	63.62876129150391	1121.718017578125	871.54052734375	71.23946380615234	1073.795776367188	838.7625122070313	47.47065353393555	1005.16015625	665.828369140625	1096.357788085938	1167.376953125	701.7210083007813	176.4130859375	1020.325012207031	663.0133056640625	175.5707702636719	1054.34765625	691.3598022460938	255.2200164794922	1004.608215332031	652.9379272460938	259.2307434082031	1041.287231445313	725.6446533203125	649.0053100585938	1010.914184570313	673.2310791015625	641.8743286132813	1061.858764648438	714.6869506835938	758.848876953125	1020.065612792969	668.11865234375	752.152587890625	1070.293334960938	782.24755859375	462.8341979980469	1062.721557617188	709.9550170898438	104.941764831543	1411.252197265625	733.0009155273438	121.245361328125	1327.31298828125	849.4811401367188	1049.8974609375	1327.027099609375	767.480712890625	964.673828125	1399.1640625	632.54541015625	44.01781463623047	1374.600219726563	658.0528564453125	59.14646530151367	1412.320434570313	644.7185668945313	94.40010833740234	1373.248413085938	733.990234375	486.5909423828125	1422.89404296875	764.5585327148438	1132.857055664063	1374.4912109375	734.4452514648438	558.7333984375	1415.698974609375	722.0684814453125	535.88671875	1285.007446289063	862.494384765625	66.24466705322266	1323.609130859375	865.8695678710938	74.75593566894531	1366.874877929688	838.3822631835938	56.98404312133789	1435.792724609375	664.4790649414063	1098.057373046875	1256.4853515625	697.37890625	189.1192321777344	1423.611938476563	657.4849243164063	191.2715606689453	1386.40771484375	688.6350708007813	268.904296875	1435.666381835938	651.1185302734375	270.3761901855469	1396.304809570313	718.638671875	660.1034545898438	1418.146118164063	665.7559814453125	657.6592407226563	1366.093627929688	710.4012451171875	770.6685791015625	1417.485107421875	661.21044921875	767.8485717773438	1367.319458007813	789.1406860351563	475.6376647949219	1367.551879882813	
97	0.64	713.1865234375	106.32666015625	1030.575927734375	735.3822021484375	119.1127624511719	1112.102661132813	853.5512084960938	1050.607177734375	1108.881591796875	775.307861328125	953.8577270507813	1032.118408203125	637.3738403320313	44.15223693847656	1072.2333984375	670.47265625	55.16785430908203	1027.270629882813	648.8516235351563	94.15891265869141	1071.4306640625	723.1406860351563	484.0055236816406	1008.144714355469	767.2468872070313	1129.538208007813	1052.037963867188	735.9871215820313	552.0347290039063	1011.953674316406	714.9555053710938	530.0106201171875	1140.69482421875	865	63.63116073608398	1121.7158203125	871.5369262695313	71.24266052246094	1073.797485351563	838.7540893554688	47.47747421264648	1005.16455078125	665.8357543945313	1096.364135742188	1167.388061523438	701.719970703125	176.42333984375	1020.32373046875	663.0090942382813	175.5767669677734	1054.353393554688	691.349365234375	255.2234954833984	1004.608215332031	652.9353637695313	259.2335510253906	1041.297973632813	725.6426391601563	649.0112915039063	1010.915100097656	673.2354125976563	641.8780517578125	1061.8759765625	714.6844482421875	758.8601684570313	1020.070373535156	668.13134765625	752.1527709960938	1070.312866210938	782.2491455078125	462.8241882324219	1062.730834960938	709.965087890625	104.9594268798828	1411.259521484375	733.012451171875	121.2493515014648	1327.3125	849.4949340820313	1049.88623046875	1327.0361328125	767.4951782226563	964.6737670898438	1399.150390625	632.5520629882813	44.02504730224609	1374.59765625	658.0454711914063	59.15417098999023	1412.329833984375	644.7178955078125	94.40689086914063	1373.24267578125	733.9962768554688	486.5955200195313	1422.9072265625	764.5717163085938	1132.86083984375	1374.502685546875	734.4788208007813	558.7705078125	1415.803833007813	722.0838623046875	535.8927001953125	1285.026123046875	862.4378051757813	66.20142364501953	1323.63037109375	865.8643188476563	74.76636505126953	1366.884033203125	838.3880004882813	56.98223876953125	1435.797973632813	664.4906005859375	1098.068725585938	1256.489624023438	697.3815307617188	189.1216278076172	1423.613647460938	657.4871215820313	191.2827606201172	1386.409790039063	688.633056640625	268.9112854003906	1435.681274414063	651.121337890625	270.3728942871094	1396.319213867188	718.6573486328125	660.0997924804688	1418.155029296875	665.7606811523438	657.664306640625	1366.101318359375	710.4225463867188	770.6591186523438	1417.493041992188	661.2247314453125	767.8441162109375	1367.347534179688	789.1454467773438	475.63330078125	1367.552978515625	
